<mxfile host="app.diagrams.net" agent="Mozilla/5.0 (Windows NT 10.0; Win64; x64) AppleWebKit/537.36 (KHTML, like Gecko) Chrome/137.0.0.0 Safari/537.36 Edg/137.0.0.0" version="27.1.3">
  <diagram name="第 1 页" id="QPGxSilBu9Ac31NWv05K">
    <mxGraphModel dx="3425" dy="1848" grid="1" gridSize="10" guides="1" tooltips="1" connect="1" arrows="1" fold="1" page="1" pageScale="1" pageWidth="827" pageHeight="1169" math="0" shadow="0">
      <root>
        <mxCell id="0" />
        <mxCell id="1" parent="0" />
        <mxCell id="EEROR-bLSsk1TJV5t8Pp-132" value="system_users" style="shape=table;startSize=25;container=1;collapsible=0;childLayout=tableLayout;fixedRows=1;rowLines=1;fontStyle=1;align=center;resizeLast=1;" vertex="1" parent="1">
          <mxGeometry x="40" y="700" width="273" height="214" as="geometry" />
        </mxCell>
        <mxCell id="EEROR-bLSsk1TJV5t8Pp-133" style="shape=tableRow;horizontal=0;startSize=0;swimlaneHead=0;swimlaneBody=0;fillColor=none;collapsible=0;dropTarget=0;points=[[0,0.5],[1,0.5]];portConstraint=eastwest;top=0;left=0;right=0;bottom=0;" vertex="1" parent="EEROR-bLSsk1TJV5t8Pp-132">
          <mxGeometry y="25" width="273" height="47" as="geometry" />
        </mxCell>
        <mxCell id="EEROR-bLSsk1TJV5t8Pp-134" value="VARCHAR2(20)" style="shape=partialRectangle;connectable=0;fillColor=none;top=0;left=0;bottom=0;right=0;align=left;spacingLeft=2;overflow=hidden;fontSize=11;" vertex="1" parent="EEROR-bLSsk1TJV5t8Pp-133">
          <mxGeometry width="78" height="47" as="geometry">
            <mxRectangle width="78" height="47" as="alternateBounds" />
          </mxGeometry>
        </mxCell>
        <mxCell id="EEROR-bLSsk1TJV5t8Pp-135" value="user_id" style="shape=partialRectangle;connectable=0;fillColor=none;top=0;left=0;bottom=0;right=0;align=left;spacingLeft=2;overflow=hidden;fontSize=11;" vertex="1" parent="EEROR-bLSsk1TJV5t8Pp-133">
          <mxGeometry x="78" width="173" height="47" as="geometry">
            <mxRectangle width="173" height="47" as="alternateBounds" />
          </mxGeometry>
        </mxCell>
        <mxCell id="EEROR-bLSsk1TJV5t8Pp-136" value="PK" style="shape=partialRectangle;connectable=0;fillColor=none;top=0;left=0;bottom=0;right=0;align=left;spacingLeft=2;overflow=hidden;fontSize=11;" vertex="1" parent="EEROR-bLSsk1TJV5t8Pp-133">
          <mxGeometry x="251" width="22" height="47" as="geometry">
            <mxRectangle width="22" height="47" as="alternateBounds" />
          </mxGeometry>
        </mxCell>
        <mxCell id="EEROR-bLSsk1TJV5t8Pp-137" style="shape=tableRow;horizontal=0;startSize=0;swimlaneHead=0;swimlaneBody=0;fillColor=none;collapsible=0;dropTarget=0;points=[[0,0.5],[1,0.5]];portConstraint=eastwest;top=0;left=0;right=0;bottom=0;" vertex="1" parent="EEROR-bLSsk1TJV5t8Pp-132">
          <mxGeometry y="72" width="273" height="47" as="geometry" />
        </mxCell>
        <mxCell id="EEROR-bLSsk1TJV5t8Pp-138" value="VARCHAR2(100)" style="shape=partialRectangle;connectable=0;fillColor=none;top=0;left=0;bottom=0;right=0;align=left;spacingLeft=2;overflow=hidden;fontSize=11;" vertex="1" parent="EEROR-bLSsk1TJV5t8Pp-137">
          <mxGeometry width="78" height="47" as="geometry">
            <mxRectangle width="78" height="47" as="alternateBounds" />
          </mxGeometry>
        </mxCell>
        <mxCell id="EEROR-bLSsk1TJV5t8Pp-139" value="password" style="shape=partialRectangle;connectable=0;fillColor=none;top=0;left=0;bottom=0;right=0;align=left;spacingLeft=2;overflow=hidden;fontSize=11;" vertex="1" parent="EEROR-bLSsk1TJV5t8Pp-137">
          <mxGeometry x="78" width="173" height="47" as="geometry">
            <mxRectangle width="173" height="47" as="alternateBounds" />
          </mxGeometry>
        </mxCell>
        <mxCell id="EEROR-bLSsk1TJV5t8Pp-140" value="" style="shape=partialRectangle;connectable=0;fillColor=none;top=0;left=0;bottom=0;right=0;align=left;spacingLeft=2;overflow=hidden;fontSize=11;" vertex="1" parent="EEROR-bLSsk1TJV5t8Pp-137">
          <mxGeometry x="251" width="22" height="47" as="geometry">
            <mxRectangle width="22" height="47" as="alternateBounds" />
          </mxGeometry>
        </mxCell>
        <mxCell id="EEROR-bLSsk1TJV5t8Pp-141" style="shape=tableRow;horizontal=0;startSize=0;swimlaneHead=0;swimlaneBody=0;fillColor=none;collapsible=0;dropTarget=0;points=[[0,0.5],[1,0.5]];portConstraint=eastwest;top=0;left=0;right=0;bottom=0;" vertex="1" parent="EEROR-bLSsk1TJV5t8Pp-132">
          <mxGeometry y="119" width="273" height="47" as="geometry" />
        </mxCell>
        <mxCell id="EEROR-bLSsk1TJV5t8Pp-142" value="VARCHAR2(10)" style="shape=partialRectangle;connectable=0;fillColor=none;top=0;left=0;bottom=0;right=0;align=left;spacingLeft=2;overflow=hidden;fontSize=11;" vertex="1" parent="EEROR-bLSsk1TJV5t8Pp-141">
          <mxGeometry width="78" height="47" as="geometry">
            <mxRectangle width="78" height="47" as="alternateBounds" />
          </mxGeometry>
        </mxCell>
        <mxCell id="EEROR-bLSsk1TJV5t8Pp-143" value="role" style="shape=partialRectangle;connectable=0;fillColor=none;top=0;left=0;bottom=0;right=0;align=left;spacingLeft=2;overflow=hidden;fontSize=11;" vertex="1" parent="EEROR-bLSsk1TJV5t8Pp-141">
          <mxGeometry x="78" width="173" height="47" as="geometry">
            <mxRectangle width="173" height="47" as="alternateBounds" />
          </mxGeometry>
        </mxCell>
        <mxCell id="EEROR-bLSsk1TJV5t8Pp-144" value="" style="shape=partialRectangle;connectable=0;fillColor=none;top=0;left=0;bottom=0;right=0;align=left;spacingLeft=2;overflow=hidden;fontSize=11;" vertex="1" parent="EEROR-bLSsk1TJV5t8Pp-141">
          <mxGeometry x="251" width="22" height="47" as="geometry">
            <mxRectangle width="22" height="47" as="alternateBounds" />
          </mxGeometry>
        </mxCell>
        <mxCell id="EEROR-bLSsk1TJV5t8Pp-145" style="shape=tableRow;horizontal=0;startSize=0;swimlaneHead=0;swimlaneBody=0;fillColor=none;collapsible=0;dropTarget=0;points=[[0,0.5],[1,0.5]];portConstraint=eastwest;top=0;left=0;right=0;bottom=0;" vertex="1" parent="EEROR-bLSsk1TJV5t8Pp-132">
          <mxGeometry y="166" width="273" height="47" as="geometry" />
        </mxCell>
        <mxCell id="EEROR-bLSsk1TJV5t8Pp-146" value="DATE" style="shape=partialRectangle;connectable=0;fillColor=none;top=0;left=0;bottom=0;right=0;align=left;spacingLeft=2;overflow=hidden;fontSize=11;" vertex="1" parent="EEROR-bLSsk1TJV5t8Pp-145">
          <mxGeometry width="78" height="47" as="geometry">
            <mxRectangle width="78" height="47" as="alternateBounds" />
          </mxGeometry>
        </mxCell>
        <mxCell id="EEROR-bLSsk1TJV5t8Pp-147" value="last_login" style="shape=partialRectangle;connectable=0;fillColor=none;top=0;left=0;bottom=0;right=0;align=left;spacingLeft=2;overflow=hidden;fontSize=11;" vertex="1" parent="EEROR-bLSsk1TJV5t8Pp-145">
          <mxGeometry x="78" width="173" height="47" as="geometry">
            <mxRectangle width="173" height="47" as="alternateBounds" />
          </mxGeometry>
        </mxCell>
        <mxCell id="EEROR-bLSsk1TJV5t8Pp-148" value="" style="shape=partialRectangle;connectable=0;fillColor=none;top=0;left=0;bottom=0;right=0;align=left;spacingLeft=2;overflow=hidden;fontSize=11;" vertex="1" parent="EEROR-bLSsk1TJV5t8Pp-145">
          <mxGeometry x="251" width="22" height="47" as="geometry">
            <mxRectangle width="22" height="47" as="alternateBounds" />
          </mxGeometry>
        </mxCell>
        <mxCell id="EEROR-bLSsk1TJV5t8Pp-149" value="system_log" style="shape=table;startSize=25;container=1;collapsible=0;childLayout=tableLayout;fixedRows=1;rowLines=1;fontStyle=1;align=center;resizeLast=1;" vertex="1" parent="1">
          <mxGeometry x="40" y="1037" width="273" height="214" as="geometry" />
        </mxCell>
        <mxCell id="EEROR-bLSsk1TJV5t8Pp-150" style="shape=tableRow;horizontal=0;startSize=0;swimlaneHead=0;swimlaneBody=0;fillColor=none;collapsible=0;dropTarget=0;points=[[0,0.5],[1,0.5]];portConstraint=eastwest;top=0;left=0;right=0;bottom=0;" vertex="1" parent="EEROR-bLSsk1TJV5t8Pp-149">
          <mxGeometry y="25" width="273" height="47" as="geometry" />
        </mxCell>
        <mxCell id="EEROR-bLSsk1TJV5t8Pp-151" value="NUMBER" style="shape=partialRectangle;connectable=0;fillColor=none;top=0;left=0;bottom=0;right=0;align=left;spacingLeft=2;overflow=hidden;fontSize=11;" vertex="1" parent="EEROR-bLSsk1TJV5t8Pp-150">
          <mxGeometry width="78" height="47" as="geometry">
            <mxRectangle width="78" height="47" as="alternateBounds" />
          </mxGeometry>
        </mxCell>
        <mxCell id="EEROR-bLSsk1TJV5t8Pp-152" value="log_id" style="shape=partialRectangle;connectable=0;fillColor=none;top=0;left=0;bottom=0;right=0;align=left;spacingLeft=2;overflow=hidden;fontSize=11;" vertex="1" parent="EEROR-bLSsk1TJV5t8Pp-150">
          <mxGeometry x="78" width="173" height="47" as="geometry">
            <mxRectangle width="173" height="47" as="alternateBounds" />
          </mxGeometry>
        </mxCell>
        <mxCell id="EEROR-bLSsk1TJV5t8Pp-153" value="PK" style="shape=partialRectangle;connectable=0;fillColor=none;top=0;left=0;bottom=0;right=0;align=left;spacingLeft=2;overflow=hidden;fontSize=11;" vertex="1" parent="EEROR-bLSsk1TJV5t8Pp-150">
          <mxGeometry x="251" width="22" height="47" as="geometry">
            <mxRectangle width="22" height="47" as="alternateBounds" />
          </mxGeometry>
        </mxCell>
        <mxCell id="EEROR-bLSsk1TJV5t8Pp-154" style="shape=tableRow;horizontal=0;startSize=0;swimlaneHead=0;swimlaneBody=0;fillColor=none;collapsible=0;dropTarget=0;points=[[0,0.5],[1,0.5]];portConstraint=eastwest;top=0;left=0;right=0;bottom=0;" vertex="1" parent="EEROR-bLSsk1TJV5t8Pp-149">
          <mxGeometry y="72" width="273" height="47" as="geometry" />
        </mxCell>
        <mxCell id="EEROR-bLSsk1TJV5t8Pp-155" value="VARCHAR2(20)" style="shape=partialRectangle;connectable=0;fillColor=none;top=0;left=0;bottom=0;right=0;align=left;spacingLeft=2;overflow=hidden;fontSize=11;" vertex="1" parent="EEROR-bLSsk1TJV5t8Pp-154">
          <mxGeometry width="78" height="47" as="geometry">
            <mxRectangle width="78" height="47" as="alternateBounds" />
          </mxGeometry>
        </mxCell>
        <mxCell id="EEROR-bLSsk1TJV5t8Pp-156" value="user_id" style="shape=partialRectangle;connectable=0;fillColor=none;top=0;left=0;bottom=0;right=0;align=left;spacingLeft=2;overflow=hidden;fontSize=11;" vertex="1" parent="EEROR-bLSsk1TJV5t8Pp-154">
          <mxGeometry x="78" width="173" height="47" as="geometry">
            <mxRectangle width="173" height="47" as="alternateBounds" />
          </mxGeometry>
        </mxCell>
        <mxCell id="EEROR-bLSsk1TJV5t8Pp-157" value="FK" style="shape=partialRectangle;connectable=0;fillColor=none;top=0;left=0;bottom=0;right=0;align=left;spacingLeft=2;overflow=hidden;fontSize=11;" vertex="1" parent="EEROR-bLSsk1TJV5t8Pp-154">
          <mxGeometry x="251" width="22" height="47" as="geometry">
            <mxRectangle width="22" height="47" as="alternateBounds" />
          </mxGeometry>
        </mxCell>
        <mxCell id="EEROR-bLSsk1TJV5t8Pp-158" style="shape=tableRow;horizontal=0;startSize=0;swimlaneHead=0;swimlaneBody=0;fillColor=none;collapsible=0;dropTarget=0;points=[[0,0.5],[1,0.5]];portConstraint=eastwest;top=0;left=0;right=0;bottom=0;" vertex="1" parent="EEROR-bLSsk1TJV5t8Pp-149">
          <mxGeometry y="119" width="273" height="47" as="geometry" />
        </mxCell>
        <mxCell id="EEROR-bLSsk1TJV5t8Pp-159" value="VARCHAR2(100)" style="shape=partialRectangle;connectable=0;fillColor=none;top=0;left=0;bottom=0;right=0;align=left;spacingLeft=2;overflow=hidden;fontSize=11;" vertex="1" parent="EEROR-bLSsk1TJV5t8Pp-158">
          <mxGeometry width="78" height="47" as="geometry">
            <mxRectangle width="78" height="47" as="alternateBounds" />
          </mxGeometry>
        </mxCell>
        <mxCell id="EEROR-bLSsk1TJV5t8Pp-160" value="operation" style="shape=partialRectangle;connectable=0;fillColor=none;top=0;left=0;bottom=0;right=0;align=left;spacingLeft=2;overflow=hidden;fontSize=11;" vertex="1" parent="EEROR-bLSsk1TJV5t8Pp-158">
          <mxGeometry x="78" width="173" height="47" as="geometry">
            <mxRectangle width="173" height="47" as="alternateBounds" />
          </mxGeometry>
        </mxCell>
        <mxCell id="EEROR-bLSsk1TJV5t8Pp-161" value="" style="shape=partialRectangle;connectable=0;fillColor=none;top=0;left=0;bottom=0;right=0;align=left;spacingLeft=2;overflow=hidden;fontSize=11;" vertex="1" parent="EEROR-bLSsk1TJV5t8Pp-158">
          <mxGeometry x="251" width="22" height="47" as="geometry">
            <mxRectangle width="22" height="47" as="alternateBounds" />
          </mxGeometry>
        </mxCell>
        <mxCell id="EEROR-bLSsk1TJV5t8Pp-162" style="shape=tableRow;horizontal=0;startSize=0;swimlaneHead=0;swimlaneBody=0;fillColor=none;collapsible=0;dropTarget=0;points=[[0,0.5],[1,0.5]];portConstraint=eastwest;top=0;left=0;right=0;bottom=0;" vertex="1" parent="EEROR-bLSsk1TJV5t8Pp-149">
          <mxGeometry y="166" width="273" height="47" as="geometry" />
        </mxCell>
        <mxCell id="EEROR-bLSsk1TJV5t8Pp-163" value="TIMESTAMP" style="shape=partialRectangle;connectable=0;fillColor=none;top=0;left=0;bottom=0;right=0;align=left;spacingLeft=2;overflow=hidden;fontSize=11;" vertex="1" parent="EEROR-bLSsk1TJV5t8Pp-162">
          <mxGeometry width="78" height="47" as="geometry">
            <mxRectangle width="78" height="47" as="alternateBounds" />
          </mxGeometry>
        </mxCell>
        <mxCell id="EEROR-bLSsk1TJV5t8Pp-164" value="op_time" style="shape=partialRectangle;connectable=0;fillColor=none;top=0;left=0;bottom=0;right=0;align=left;spacingLeft=2;overflow=hidden;fontSize=11;" vertex="1" parent="EEROR-bLSsk1TJV5t8Pp-162">
          <mxGeometry x="78" width="173" height="47" as="geometry">
            <mxRectangle width="173" height="47" as="alternateBounds" />
          </mxGeometry>
        </mxCell>
        <mxCell id="EEROR-bLSsk1TJV5t8Pp-165" value="" style="shape=partialRectangle;connectable=0;fillColor=none;top=0;left=0;bottom=0;right=0;align=left;spacingLeft=2;overflow=hidden;fontSize=11;" vertex="1" parent="EEROR-bLSsk1TJV5t8Pp-162">
          <mxGeometry x="251" width="22" height="47" as="geometry">
            <mxRectangle width="22" height="47" as="alternateBounds" />
          </mxGeometry>
        </mxCell>
        <mxCell id="EEROR-bLSsk1TJV5t8Pp-166" value="buildings" style="shape=table;startSize=25;container=1;collapsible=0;childLayout=tableLayout;fixedRows=1;rowLines=1;fontStyle=1;align=center;resizeLast=1;" vertex="1" parent="1">
          <mxGeometry x="913" y="20" width="300" height="214" as="geometry" />
        </mxCell>
        <mxCell id="EEROR-bLSsk1TJV5t8Pp-167" style="shape=tableRow;horizontal=0;startSize=0;swimlaneHead=0;swimlaneBody=0;fillColor=none;collapsible=0;dropTarget=0;points=[[0,0.5],[1,0.5]];portConstraint=eastwest;top=0;left=0;right=0;bottom=0;" vertex="1" parent="EEROR-bLSsk1TJV5t8Pp-166">
          <mxGeometry y="25" width="300" height="47" as="geometry" />
        </mxCell>
        <mxCell id="EEROR-bLSsk1TJV5t8Pp-168" value="VARCHAR2(10)" style="shape=partialRectangle;connectable=0;fillColor=none;top=0;left=0;bottom=0;right=0;align=left;spacingLeft=2;overflow=hidden;fontSize=11;" vertex="1" parent="EEROR-bLSsk1TJV5t8Pp-167">
          <mxGeometry width="72" height="47" as="geometry">
            <mxRectangle width="72" height="47" as="alternateBounds" />
          </mxGeometry>
        </mxCell>
        <mxCell id="EEROR-bLSsk1TJV5t8Pp-169" value="building_id" style="shape=partialRectangle;connectable=0;fillColor=none;top=0;left=0;bottom=0;right=0;align=left;spacingLeft=2;overflow=hidden;fontSize=11;" vertex="1" parent="EEROR-bLSsk1TJV5t8Pp-167">
          <mxGeometry x="72" width="206" height="47" as="geometry">
            <mxRectangle width="206" height="47" as="alternateBounds" />
          </mxGeometry>
        </mxCell>
        <mxCell id="EEROR-bLSsk1TJV5t8Pp-170" value="PK" style="shape=partialRectangle;connectable=0;fillColor=none;top=0;left=0;bottom=0;right=0;align=left;spacingLeft=2;overflow=hidden;fontSize=11;" vertex="1" parent="EEROR-bLSsk1TJV5t8Pp-167">
          <mxGeometry x="278" width="22" height="47" as="geometry">
            <mxRectangle width="22" height="47" as="alternateBounds" />
          </mxGeometry>
        </mxCell>
        <mxCell id="EEROR-bLSsk1TJV5t8Pp-171" style="shape=tableRow;horizontal=0;startSize=0;swimlaneHead=0;swimlaneBody=0;fillColor=none;collapsible=0;dropTarget=0;points=[[0,0.5],[1,0.5]];portConstraint=eastwest;top=0;left=0;right=0;bottom=0;" vertex="1" parent="EEROR-bLSsk1TJV5t8Pp-166">
          <mxGeometry y="72" width="300" height="47" as="geometry" />
        </mxCell>
        <mxCell id="EEROR-bLSsk1TJV5t8Pp-172" value="VARCHAR2(50)" style="shape=partialRectangle;connectable=0;fillColor=none;top=0;left=0;bottom=0;right=0;align=left;spacingLeft=2;overflow=hidden;fontSize=11;" vertex="1" parent="EEROR-bLSsk1TJV5t8Pp-171">
          <mxGeometry width="72" height="47" as="geometry">
            <mxRectangle width="72" height="47" as="alternateBounds" />
          </mxGeometry>
        </mxCell>
        <mxCell id="EEROR-bLSsk1TJV5t8Pp-173" value="building_name" style="shape=partialRectangle;connectable=0;fillColor=none;top=0;left=0;bottom=0;right=0;align=left;spacingLeft=2;overflow=hidden;fontSize=11;" vertex="1" parent="EEROR-bLSsk1TJV5t8Pp-171">
          <mxGeometry x="72" width="206" height="47" as="geometry">
            <mxRectangle width="206" height="47" as="alternateBounds" />
          </mxGeometry>
        </mxCell>
        <mxCell id="EEROR-bLSsk1TJV5t8Pp-174" value="" style="shape=partialRectangle;connectable=0;fillColor=none;top=0;left=0;bottom=0;right=0;align=left;spacingLeft=2;overflow=hidden;fontSize=11;" vertex="1" parent="EEROR-bLSsk1TJV5t8Pp-171">
          <mxGeometry x="278" width="22" height="47" as="geometry">
            <mxRectangle width="22" height="47" as="alternateBounds" />
          </mxGeometry>
        </mxCell>
        <mxCell id="EEROR-bLSsk1TJV5t8Pp-175" style="shape=tableRow;horizontal=0;startSize=0;swimlaneHead=0;swimlaneBody=0;fillColor=none;collapsible=0;dropTarget=0;points=[[0,0.5],[1,0.5]];portConstraint=eastwest;top=0;left=0;right=0;bottom=0;" vertex="1" parent="EEROR-bLSsk1TJV5t8Pp-166">
          <mxGeometry y="119" width="300" height="47" as="geometry" />
        </mxCell>
        <mxCell id="EEROR-bLSsk1TJV5t8Pp-176" value="VARCHAR2(20)" style="shape=partialRectangle;connectable=0;fillColor=none;top=0;left=0;bottom=0;right=0;align=left;spacingLeft=2;overflow=hidden;fontSize=11;" vertex="1" parent="EEROR-bLSsk1TJV5t8Pp-175">
          <mxGeometry width="72" height="47" as="geometry">
            <mxRectangle width="72" height="47" as="alternateBounds" />
          </mxGeometry>
        </mxCell>
        <mxCell id="EEROR-bLSsk1TJV5t8Pp-177" value="manager_id" style="shape=partialRectangle;connectable=0;fillColor=none;top=0;left=0;bottom=0;right=0;align=left;spacingLeft=2;overflow=hidden;fontSize=11;" vertex="1" parent="EEROR-bLSsk1TJV5t8Pp-175">
          <mxGeometry x="72" width="206" height="47" as="geometry">
            <mxRectangle width="206" height="47" as="alternateBounds" />
          </mxGeometry>
        </mxCell>
        <mxCell id="EEROR-bLSsk1TJV5t8Pp-178" value="FK" style="shape=partialRectangle;connectable=0;fillColor=none;top=0;left=0;bottom=0;right=0;align=left;spacingLeft=2;overflow=hidden;fontSize=11;" vertex="1" parent="EEROR-bLSsk1TJV5t8Pp-175">
          <mxGeometry x="278" width="22" height="47" as="geometry">
            <mxRectangle width="22" height="47" as="alternateBounds" />
          </mxGeometry>
        </mxCell>
        <mxCell id="EEROR-bLSsk1TJV5t8Pp-179" style="shape=tableRow;horizontal=0;startSize=0;swimlaneHead=0;swimlaneBody=0;fillColor=none;collapsible=0;dropTarget=0;points=[[0,0.5],[1,0.5]];portConstraint=eastwest;top=0;left=0;right=0;bottom=0;" vertex="1" parent="EEROR-bLSsk1TJV5t8Pp-166">
          <mxGeometry y="166" width="300" height="47" as="geometry" />
        </mxCell>
        <mxCell id="EEROR-bLSsk1TJV5t8Pp-180" value="NUMBER" style="shape=partialRectangle;connectable=0;fillColor=none;top=0;left=0;bottom=0;right=0;align=left;spacingLeft=2;overflow=hidden;fontSize=11;" vertex="1" parent="EEROR-bLSsk1TJV5t8Pp-179">
          <mxGeometry width="72" height="47" as="geometry">
            <mxRectangle width="72" height="47" as="alternateBounds" />
          </mxGeometry>
        </mxCell>
        <mxCell id="EEROR-bLSsk1TJV5t8Pp-181" value="total_rooms" style="shape=partialRectangle;connectable=0;fillColor=none;top=0;left=0;bottom=0;right=0;align=left;spacingLeft=2;overflow=hidden;fontSize=11;" vertex="1" parent="EEROR-bLSsk1TJV5t8Pp-179">
          <mxGeometry x="72" width="206" height="47" as="geometry">
            <mxRectangle width="206" height="47" as="alternateBounds" />
          </mxGeometry>
        </mxCell>
        <mxCell id="EEROR-bLSsk1TJV5t8Pp-182" value="" style="shape=partialRectangle;connectable=0;fillColor=none;top=0;left=0;bottom=0;right=0;align=left;spacingLeft=2;overflow=hidden;fontSize=11;" vertex="1" parent="EEROR-bLSsk1TJV5t8Pp-179">
          <mxGeometry x="278" width="22" height="47" as="geometry">
            <mxRectangle width="22" height="47" as="alternateBounds" />
          </mxGeometry>
        </mxCell>
        <mxCell id="EEROR-bLSsk1TJV5t8Pp-183" value="dorm_rooms" style="shape=table;startSize=25;container=1;collapsible=0;childLayout=tableLayout;fixedRows=1;rowLines=1;fontStyle=1;align=center;resizeLast=1;" vertex="1" parent="1">
          <mxGeometry x="434" y="336" width="297" height="257" as="geometry" />
        </mxCell>
        <mxCell id="EEROR-bLSsk1TJV5t8Pp-184" style="shape=tableRow;horizontal=0;startSize=0;swimlaneHead=0;swimlaneBody=0;fillColor=none;collapsible=0;dropTarget=0;points=[[0,0.5],[1,0.5]];portConstraint=eastwest;top=0;left=0;right=0;bottom=0;" vertex="1" parent="EEROR-bLSsk1TJV5t8Pp-183">
          <mxGeometry y="25" width="297" height="46" as="geometry" />
        </mxCell>
        <mxCell id="EEROR-bLSsk1TJV5t8Pp-185" value="VARCHAR2(15)" style="shape=partialRectangle;connectable=0;fillColor=none;top=0;left=0;bottom=0;right=0;align=left;spacingLeft=2;overflow=hidden;fontSize=11;" vertex="1" parent="EEROR-bLSsk1TJV5t8Pp-184">
          <mxGeometry width="72" height="46" as="geometry">
            <mxRectangle width="72" height="46" as="alternateBounds" />
          </mxGeometry>
        </mxCell>
        <mxCell id="EEROR-bLSsk1TJV5t8Pp-186" value="room_id" style="shape=partialRectangle;connectable=0;fillColor=none;top=0;left=0;bottom=0;right=0;align=left;spacingLeft=2;overflow=hidden;fontSize=11;" vertex="1" parent="EEROR-bLSsk1TJV5t8Pp-184">
          <mxGeometry x="72" width="203" height="46" as="geometry">
            <mxRectangle width="203" height="46" as="alternateBounds" />
          </mxGeometry>
        </mxCell>
        <mxCell id="EEROR-bLSsk1TJV5t8Pp-187" value="PK" style="shape=partialRectangle;connectable=0;fillColor=none;top=0;left=0;bottom=0;right=0;align=left;spacingLeft=2;overflow=hidden;fontSize=11;" vertex="1" parent="EEROR-bLSsk1TJV5t8Pp-184">
          <mxGeometry x="275" width="22" height="46" as="geometry">
            <mxRectangle width="22" height="46" as="alternateBounds" />
          </mxGeometry>
        </mxCell>
        <mxCell id="EEROR-bLSsk1TJV5t8Pp-188" style="shape=tableRow;horizontal=0;startSize=0;swimlaneHead=0;swimlaneBody=0;fillColor=none;collapsible=0;dropTarget=0;points=[[0,0.5],[1,0.5]];portConstraint=eastwest;top=0;left=0;right=0;bottom=0;" vertex="1" parent="EEROR-bLSsk1TJV5t8Pp-183">
          <mxGeometry y="71" width="297" height="46" as="geometry" />
        </mxCell>
        <mxCell id="EEROR-bLSsk1TJV5t8Pp-189" value="VARCHAR2(10)" style="shape=partialRectangle;connectable=0;fillColor=none;top=0;left=0;bottom=0;right=0;align=left;spacingLeft=2;overflow=hidden;fontSize=11;" vertex="1" parent="EEROR-bLSsk1TJV5t8Pp-188">
          <mxGeometry width="72" height="46" as="geometry">
            <mxRectangle width="72" height="46" as="alternateBounds" />
          </mxGeometry>
        </mxCell>
        <mxCell id="EEROR-bLSsk1TJV5t8Pp-190" value="building_id" style="shape=partialRectangle;connectable=0;fillColor=none;top=0;left=0;bottom=0;right=0;align=left;spacingLeft=2;overflow=hidden;fontSize=11;" vertex="1" parent="EEROR-bLSsk1TJV5t8Pp-188">
          <mxGeometry x="72" width="203" height="46" as="geometry">
            <mxRectangle width="203" height="46" as="alternateBounds" />
          </mxGeometry>
        </mxCell>
        <mxCell id="EEROR-bLSsk1TJV5t8Pp-191" value="FK" style="shape=partialRectangle;connectable=0;fillColor=none;top=0;left=0;bottom=0;right=0;align=left;spacingLeft=2;overflow=hidden;fontSize=11;" vertex="1" parent="EEROR-bLSsk1TJV5t8Pp-188">
          <mxGeometry x="275" width="22" height="46" as="geometry">
            <mxRectangle width="22" height="46" as="alternateBounds" />
          </mxGeometry>
        </mxCell>
        <mxCell id="EEROR-bLSsk1TJV5t8Pp-192" style="shape=tableRow;horizontal=0;startSize=0;swimlaneHead=0;swimlaneBody=0;fillColor=none;collapsible=0;dropTarget=0;points=[[0,0.5],[1,0.5]];portConstraint=eastwest;top=0;left=0;right=0;bottom=0;" vertex="1" parent="EEROR-bLSsk1TJV5t8Pp-183">
          <mxGeometry y="117" width="297" height="46" as="geometry" />
        </mxCell>
        <mxCell id="EEROR-bLSsk1TJV5t8Pp-193" value="VARCHAR2(20)" style="shape=partialRectangle;connectable=0;fillColor=none;top=0;left=0;bottom=0;right=0;align=left;spacingLeft=2;overflow=hidden;fontSize=11;" vertex="1" parent="EEROR-bLSsk1TJV5t8Pp-192">
          <mxGeometry width="72" height="46" as="geometry">
            <mxRectangle width="72" height="46" as="alternateBounds" />
          </mxGeometry>
        </mxCell>
        <mxCell id="EEROR-bLSsk1TJV5t8Pp-194" value="room_type" style="shape=partialRectangle;connectable=0;fillColor=none;top=0;left=0;bottom=0;right=0;align=left;spacingLeft=2;overflow=hidden;fontSize=11;" vertex="1" parent="EEROR-bLSsk1TJV5t8Pp-192">
          <mxGeometry x="72" width="203" height="46" as="geometry">
            <mxRectangle width="203" height="46" as="alternateBounds" />
          </mxGeometry>
        </mxCell>
        <mxCell id="EEROR-bLSsk1TJV5t8Pp-195" value="" style="shape=partialRectangle;connectable=0;fillColor=none;top=0;left=0;bottom=0;right=0;align=left;spacingLeft=2;overflow=hidden;fontSize=11;" vertex="1" parent="EEROR-bLSsk1TJV5t8Pp-192">
          <mxGeometry x="275" width="22" height="46" as="geometry">
            <mxRectangle width="22" height="46" as="alternateBounds" />
          </mxGeometry>
        </mxCell>
        <mxCell id="EEROR-bLSsk1TJV5t8Pp-196" style="shape=tableRow;horizontal=0;startSize=0;swimlaneHead=0;swimlaneBody=0;fillColor=none;collapsible=0;dropTarget=0;points=[[0,0.5],[1,0.5]];portConstraint=eastwest;top=0;left=0;right=0;bottom=0;" vertex="1" parent="EEROR-bLSsk1TJV5t8Pp-183">
          <mxGeometry y="163" width="297" height="46" as="geometry" />
        </mxCell>
        <mxCell id="EEROR-bLSsk1TJV5t8Pp-197" value="NUMBER" style="shape=partialRectangle;connectable=0;fillColor=none;top=0;left=0;bottom=0;right=0;align=left;spacingLeft=2;overflow=hidden;fontSize=11;" vertex="1" parent="EEROR-bLSsk1TJV5t8Pp-196">
          <mxGeometry width="72" height="46" as="geometry">
            <mxRectangle width="72" height="46" as="alternateBounds" />
          </mxGeometry>
        </mxCell>
        <mxCell id="EEROR-bLSsk1TJV5t8Pp-198" value="capacity" style="shape=partialRectangle;connectable=0;fillColor=none;top=0;left=0;bottom=0;right=0;align=left;spacingLeft=2;overflow=hidden;fontSize=11;" vertex="1" parent="EEROR-bLSsk1TJV5t8Pp-196">
          <mxGeometry x="72" width="203" height="46" as="geometry">
            <mxRectangle width="203" height="46" as="alternateBounds" />
          </mxGeometry>
        </mxCell>
        <mxCell id="EEROR-bLSsk1TJV5t8Pp-199" value="" style="shape=partialRectangle;connectable=0;fillColor=none;top=0;left=0;bottom=0;right=0;align=left;spacingLeft=2;overflow=hidden;fontSize=11;" vertex="1" parent="EEROR-bLSsk1TJV5t8Pp-196">
          <mxGeometry x="275" width="22" height="46" as="geometry">
            <mxRectangle width="22" height="46" as="alternateBounds" />
          </mxGeometry>
        </mxCell>
        <mxCell id="EEROR-bLSsk1TJV5t8Pp-200" style="shape=tableRow;horizontal=0;startSize=0;swimlaneHead=0;swimlaneBody=0;fillColor=none;collapsible=0;dropTarget=0;points=[[0,0.5],[1,0.5]];portConstraint=eastwest;top=0;left=0;right=0;bottom=0;" vertex="1" parent="EEROR-bLSsk1TJV5t8Pp-183">
          <mxGeometry y="209" width="297" height="46" as="geometry" />
        </mxCell>
        <mxCell id="EEROR-bLSsk1TJV5t8Pp-201" value="NUMBER" style="shape=partialRectangle;connectable=0;fillColor=none;top=0;left=0;bottom=0;right=0;align=left;spacingLeft=2;overflow=hidden;fontSize=11;" vertex="1" parent="EEROR-bLSsk1TJV5t8Pp-200">
          <mxGeometry width="72" height="46" as="geometry">
            <mxRectangle width="72" height="46" as="alternateBounds" />
          </mxGeometry>
        </mxCell>
        <mxCell id="EEROR-bLSsk1TJV5t8Pp-202" value="current_count" style="shape=partialRectangle;connectable=0;fillColor=none;top=0;left=0;bottom=0;right=0;align=left;spacingLeft=2;overflow=hidden;fontSize=11;" vertex="1" parent="EEROR-bLSsk1TJV5t8Pp-200">
          <mxGeometry x="72" width="203" height="46" as="geometry">
            <mxRectangle width="203" height="46" as="alternateBounds" />
          </mxGeometry>
        </mxCell>
        <mxCell id="EEROR-bLSsk1TJV5t8Pp-203" value="" style="shape=partialRectangle;connectable=0;fillColor=none;top=0;left=0;bottom=0;right=0;align=left;spacingLeft=2;overflow=hidden;fontSize=11;" vertex="1" parent="EEROR-bLSsk1TJV5t8Pp-200">
          <mxGeometry x="275" width="22" height="46" as="geometry">
            <mxRectangle width="22" height="46" as="alternateBounds" />
          </mxGeometry>
        </mxCell>
        <mxCell id="EEROR-bLSsk1TJV5t8Pp-204" value="staff" style="shape=table;startSize=25;container=1;collapsible=0;childLayout=tableLayout;fixedRows=1;rowLines=1;fontStyle=1;align=center;resizeLast=1;" vertex="1" parent="1">
          <mxGeometry x="926" y="695" width="274" height="257" as="geometry" />
        </mxCell>
        <mxCell id="EEROR-bLSsk1TJV5t8Pp-205" style="shape=tableRow;horizontal=0;startSize=0;swimlaneHead=0;swimlaneBody=0;fillColor=none;collapsible=0;dropTarget=0;points=[[0,0.5],[1,0.5]];portConstraint=eastwest;top=0;left=0;right=0;bottom=0;" vertex="1" parent="EEROR-bLSsk1TJV5t8Pp-204">
          <mxGeometry y="25" width="274" height="46" as="geometry" />
        </mxCell>
        <mxCell id="EEROR-bLSsk1TJV5t8Pp-206" value="VARCHAR2(20)" style="shape=partialRectangle;connectable=0;fillColor=none;top=0;left=0;bottom=0;right=0;align=left;spacingLeft=2;overflow=hidden;fontSize=11;" vertex="1" parent="EEROR-bLSsk1TJV5t8Pp-205">
          <mxGeometry width="72" height="46" as="geometry">
            <mxRectangle width="72" height="46" as="alternateBounds" />
          </mxGeometry>
        </mxCell>
        <mxCell id="EEROR-bLSsk1TJV5t8Pp-207" value="staff_id" style="shape=partialRectangle;connectable=0;fillColor=none;top=0;left=0;bottom=0;right=0;align=left;spacingLeft=2;overflow=hidden;fontSize=11;" vertex="1" parent="EEROR-bLSsk1TJV5t8Pp-205">
          <mxGeometry x="72" width="180" height="46" as="geometry">
            <mxRectangle width="180" height="46" as="alternateBounds" />
          </mxGeometry>
        </mxCell>
        <mxCell id="EEROR-bLSsk1TJV5t8Pp-208" value="PK" style="shape=partialRectangle;connectable=0;fillColor=none;top=0;left=0;bottom=0;right=0;align=left;spacingLeft=2;overflow=hidden;fontSize=11;" vertex="1" parent="EEROR-bLSsk1TJV5t8Pp-205">
          <mxGeometry x="252" width="22" height="46" as="geometry">
            <mxRectangle width="22" height="46" as="alternateBounds" />
          </mxGeometry>
        </mxCell>
        <mxCell id="EEROR-bLSsk1TJV5t8Pp-209" style="shape=tableRow;horizontal=0;startSize=0;swimlaneHead=0;swimlaneBody=0;fillColor=none;collapsible=0;dropTarget=0;points=[[0,0.5],[1,0.5]];portConstraint=eastwest;top=0;left=0;right=0;bottom=0;" vertex="1" parent="EEROR-bLSsk1TJV5t8Pp-204">
          <mxGeometry y="71" width="274" height="46" as="geometry" />
        </mxCell>
        <mxCell id="EEROR-bLSsk1TJV5t8Pp-210" value="VARCHAR2(50)" style="shape=partialRectangle;connectable=0;fillColor=none;top=0;left=0;bottom=0;right=0;align=left;spacingLeft=2;overflow=hidden;fontSize=11;" vertex="1" parent="EEROR-bLSsk1TJV5t8Pp-209">
          <mxGeometry width="72" height="46" as="geometry">
            <mxRectangle width="72" height="46" as="alternateBounds" />
          </mxGeometry>
        </mxCell>
        <mxCell id="EEROR-bLSsk1TJV5t8Pp-211" value="name" style="shape=partialRectangle;connectable=0;fillColor=none;top=0;left=0;bottom=0;right=0;align=left;spacingLeft=2;overflow=hidden;fontSize=11;" vertex="1" parent="EEROR-bLSsk1TJV5t8Pp-209">
          <mxGeometry x="72" width="180" height="46" as="geometry">
            <mxRectangle width="180" height="46" as="alternateBounds" />
          </mxGeometry>
        </mxCell>
        <mxCell id="EEROR-bLSsk1TJV5t8Pp-212" value="" style="shape=partialRectangle;connectable=0;fillColor=none;top=0;left=0;bottom=0;right=0;align=left;spacingLeft=2;overflow=hidden;fontSize=11;" vertex="1" parent="EEROR-bLSsk1TJV5t8Pp-209">
          <mxGeometry x="252" width="22" height="46" as="geometry">
            <mxRectangle width="22" height="46" as="alternateBounds" />
          </mxGeometry>
        </mxCell>
        <mxCell id="EEROR-bLSsk1TJV5t8Pp-213" style="shape=tableRow;horizontal=0;startSize=0;swimlaneHead=0;swimlaneBody=0;fillColor=none;collapsible=0;dropTarget=0;points=[[0,0.5],[1,0.5]];portConstraint=eastwest;top=0;left=0;right=0;bottom=0;" vertex="1" parent="EEROR-bLSsk1TJV5t8Pp-204">
          <mxGeometry y="117" width="274" height="46" as="geometry" />
        </mxCell>
        <mxCell id="EEROR-bLSsk1TJV5t8Pp-214" value="VARCHAR2(30)" style="shape=partialRectangle;connectable=0;fillColor=none;top=0;left=0;bottom=0;right=0;align=left;spacingLeft=2;overflow=hidden;fontSize=11;" vertex="1" parent="EEROR-bLSsk1TJV5t8Pp-213">
          <mxGeometry width="72" height="46" as="geometry">
            <mxRectangle width="72" height="46" as="alternateBounds" />
          </mxGeometry>
        </mxCell>
        <mxCell id="EEROR-bLSsk1TJV5t8Pp-215" value="position" style="shape=partialRectangle;connectable=0;fillColor=none;top=0;left=0;bottom=0;right=0;align=left;spacingLeft=2;overflow=hidden;fontSize=11;" vertex="1" parent="EEROR-bLSsk1TJV5t8Pp-213">
          <mxGeometry x="72" width="180" height="46" as="geometry">
            <mxRectangle width="180" height="46" as="alternateBounds" />
          </mxGeometry>
        </mxCell>
        <mxCell id="EEROR-bLSsk1TJV5t8Pp-216" value="" style="shape=partialRectangle;connectable=0;fillColor=none;top=0;left=0;bottom=0;right=0;align=left;spacingLeft=2;overflow=hidden;fontSize=11;" vertex="1" parent="EEROR-bLSsk1TJV5t8Pp-213">
          <mxGeometry x="252" width="22" height="46" as="geometry">
            <mxRectangle width="22" height="46" as="alternateBounds" />
          </mxGeometry>
        </mxCell>
        <mxCell id="EEROR-bLSsk1TJV5t8Pp-217" style="shape=tableRow;horizontal=0;startSize=0;swimlaneHead=0;swimlaneBody=0;fillColor=none;collapsible=0;dropTarget=0;points=[[0,0.5],[1,0.5]];portConstraint=eastwest;top=0;left=0;right=0;bottom=0;" vertex="1" parent="EEROR-bLSsk1TJV5t8Pp-204">
          <mxGeometry y="163" width="274" height="46" as="geometry" />
        </mxCell>
        <mxCell id="EEROR-bLSsk1TJV5t8Pp-218" value="VARCHAR2(30)" style="shape=partialRectangle;connectable=0;fillColor=none;top=0;left=0;bottom=0;right=0;align=left;spacingLeft=2;overflow=hidden;fontSize=11;" vertex="1" parent="EEROR-bLSsk1TJV5t8Pp-217">
          <mxGeometry width="72" height="46" as="geometry">
            <mxRectangle width="72" height="46" as="alternateBounds" />
          </mxGeometry>
        </mxCell>
        <mxCell id="EEROR-bLSsk1TJV5t8Pp-219" value="contact" style="shape=partialRectangle;connectable=0;fillColor=none;top=0;left=0;bottom=0;right=0;align=left;spacingLeft=2;overflow=hidden;fontSize=11;" vertex="1" parent="EEROR-bLSsk1TJV5t8Pp-217">
          <mxGeometry x="72" width="180" height="46" as="geometry">
            <mxRectangle width="180" height="46" as="alternateBounds" />
          </mxGeometry>
        </mxCell>
        <mxCell id="EEROR-bLSsk1TJV5t8Pp-220" value="" style="shape=partialRectangle;connectable=0;fillColor=none;top=0;left=0;bottom=0;right=0;align=left;spacingLeft=2;overflow=hidden;fontSize=11;" vertex="1" parent="EEROR-bLSsk1TJV5t8Pp-217">
          <mxGeometry x="252" width="22" height="46" as="geometry">
            <mxRectangle width="22" height="46" as="alternateBounds" />
          </mxGeometry>
        </mxCell>
        <mxCell id="EEROR-bLSsk1TJV5t8Pp-221" style="shape=tableRow;horizontal=0;startSize=0;swimlaneHead=0;swimlaneBody=0;fillColor=none;collapsible=0;dropTarget=0;points=[[0,0.5],[1,0.5]];portConstraint=eastwest;top=0;left=0;right=0;bottom=0;" vertex="1" parent="EEROR-bLSsk1TJV5t8Pp-204">
          <mxGeometry y="209" width="274" height="46" as="geometry" />
        </mxCell>
        <mxCell id="EEROR-bLSsk1TJV5t8Pp-222" value="VARCHAR2(10)" style="shape=partialRectangle;connectable=0;fillColor=none;top=0;left=0;bottom=0;right=0;align=left;spacingLeft=2;overflow=hidden;fontSize=11;" vertex="1" parent="EEROR-bLSsk1TJV5t8Pp-221">
          <mxGeometry width="72" height="46" as="geometry">
            <mxRectangle width="72" height="46" as="alternateBounds" />
          </mxGeometry>
        </mxCell>
        <mxCell id="EEROR-bLSsk1TJV5t8Pp-223" value="building_id" style="shape=partialRectangle;connectable=0;fillColor=none;top=0;left=0;bottom=0;right=0;align=left;spacingLeft=2;overflow=hidden;fontSize=11;" vertex="1" parent="EEROR-bLSsk1TJV5t8Pp-221">
          <mxGeometry x="72" width="180" height="46" as="geometry">
            <mxRectangle width="180" height="46" as="alternateBounds" />
          </mxGeometry>
        </mxCell>
        <mxCell id="EEROR-bLSsk1TJV5t8Pp-224" value="FK" style="shape=partialRectangle;connectable=0;fillColor=none;top=0;left=0;bottom=0;right=0;align=left;spacingLeft=2;overflow=hidden;fontSize=11;" vertex="1" parent="EEROR-bLSsk1TJV5t8Pp-221">
          <mxGeometry x="252" width="22" height="46" as="geometry">
            <mxRectangle width="22" height="46" as="alternateBounds" />
          </mxGeometry>
        </mxCell>
        <mxCell id="EEROR-bLSsk1TJV5t8Pp-225" value="visitor_registrations" style="shape=table;startSize=25;container=1;collapsible=0;childLayout=tableLayout;fixedRows=1;rowLines=1;fontStyle=1;align=center;resizeLast=1;" vertex="1" parent="1">
          <mxGeometry x="977" y="1053" width="288" height="342" as="geometry" />
        </mxCell>
        <mxCell id="EEROR-bLSsk1TJV5t8Pp-226" style="shape=tableRow;horizontal=0;startSize=0;swimlaneHead=0;swimlaneBody=0;fillColor=none;collapsible=0;dropTarget=0;points=[[0,0.5],[1,0.5]];portConstraint=eastwest;top=0;left=0;right=0;bottom=0;" vertex="1" parent="EEROR-bLSsk1TJV5t8Pp-225">
          <mxGeometry y="25" width="288" height="45" as="geometry" />
        </mxCell>
        <mxCell id="EEROR-bLSsk1TJV5t8Pp-227" value="NUMBER" style="shape=partialRectangle;connectable=0;fillColor=none;top=0;left=0;bottom=0;right=0;align=left;spacingLeft=2;overflow=hidden;fontSize=11;" vertex="1" parent="EEROR-bLSsk1TJV5t8Pp-226">
          <mxGeometry width="72" height="45" as="geometry">
            <mxRectangle width="72" height="45" as="alternateBounds" />
          </mxGeometry>
        </mxCell>
        <mxCell id="EEROR-bLSsk1TJV5t8Pp-228" value="visit_id" style="shape=partialRectangle;connectable=0;fillColor=none;top=0;left=0;bottom=0;right=0;align=left;spacingLeft=2;overflow=hidden;fontSize=11;" vertex="1" parent="EEROR-bLSsk1TJV5t8Pp-226">
          <mxGeometry x="72" width="194" height="45" as="geometry">
            <mxRectangle width="194" height="45" as="alternateBounds" />
          </mxGeometry>
        </mxCell>
        <mxCell id="EEROR-bLSsk1TJV5t8Pp-229" value="PK" style="shape=partialRectangle;connectable=0;fillColor=none;top=0;left=0;bottom=0;right=0;align=left;spacingLeft=2;overflow=hidden;fontSize=11;" vertex="1" parent="EEROR-bLSsk1TJV5t8Pp-226">
          <mxGeometry x="266" width="22" height="45" as="geometry">
            <mxRectangle width="22" height="45" as="alternateBounds" />
          </mxGeometry>
        </mxCell>
        <mxCell id="EEROR-bLSsk1TJV5t8Pp-230" style="shape=tableRow;horizontal=0;startSize=0;swimlaneHead=0;swimlaneBody=0;fillColor=none;collapsible=0;dropTarget=0;points=[[0,0.5],[1,0.5]];portConstraint=eastwest;top=0;left=0;right=0;bottom=0;" vertex="1" parent="EEROR-bLSsk1TJV5t8Pp-225">
          <mxGeometry y="70" width="288" height="45" as="geometry" />
        </mxCell>
        <mxCell id="EEROR-bLSsk1TJV5t8Pp-231" value="VARCHAR2(50)" style="shape=partialRectangle;connectable=0;fillColor=none;top=0;left=0;bottom=0;right=0;align=left;spacingLeft=2;overflow=hidden;fontSize=11;" vertex="1" parent="EEROR-bLSsk1TJV5t8Pp-230">
          <mxGeometry width="72" height="45" as="geometry">
            <mxRectangle width="72" height="45" as="alternateBounds" />
          </mxGeometry>
        </mxCell>
        <mxCell id="EEROR-bLSsk1TJV5t8Pp-232" value="visitor_name" style="shape=partialRectangle;connectable=0;fillColor=none;top=0;left=0;bottom=0;right=0;align=left;spacingLeft=2;overflow=hidden;fontSize=11;" vertex="1" parent="EEROR-bLSsk1TJV5t8Pp-230">
          <mxGeometry x="72" width="194" height="45" as="geometry">
            <mxRectangle width="194" height="45" as="alternateBounds" />
          </mxGeometry>
        </mxCell>
        <mxCell id="EEROR-bLSsk1TJV5t8Pp-233" value="" style="shape=partialRectangle;connectable=0;fillColor=none;top=0;left=0;bottom=0;right=0;align=left;spacingLeft=2;overflow=hidden;fontSize=11;" vertex="1" parent="EEROR-bLSsk1TJV5t8Pp-230">
          <mxGeometry x="266" width="22" height="45" as="geometry">
            <mxRectangle width="22" height="45" as="alternateBounds" />
          </mxGeometry>
        </mxCell>
        <mxCell id="EEROR-bLSsk1TJV5t8Pp-234" style="shape=tableRow;horizontal=0;startSize=0;swimlaneHead=0;swimlaneBody=0;fillColor=none;collapsible=0;dropTarget=0;points=[[0,0.5],[1,0.5]];portConstraint=eastwest;top=0;left=0;right=0;bottom=0;" vertex="1" parent="EEROR-bLSsk1TJV5t8Pp-225">
          <mxGeometry y="115" width="288" height="45" as="geometry" />
        </mxCell>
        <mxCell id="EEROR-bLSsk1TJV5t8Pp-235" value="VARCHAR2(20)" style="shape=partialRectangle;connectable=0;fillColor=none;top=0;left=0;bottom=0;right=0;align=left;spacingLeft=2;overflow=hidden;fontSize=11;" vertex="1" parent="EEROR-bLSsk1TJV5t8Pp-234">
          <mxGeometry width="72" height="45" as="geometry">
            <mxRectangle width="72" height="45" as="alternateBounds" />
          </mxGeometry>
        </mxCell>
        <mxCell id="EEROR-bLSsk1TJV5t8Pp-236" value="student_id" style="shape=partialRectangle;connectable=0;fillColor=none;top=0;left=0;bottom=0;right=0;align=left;spacingLeft=2;overflow=hidden;fontSize=11;" vertex="1" parent="EEROR-bLSsk1TJV5t8Pp-234">
          <mxGeometry x="72" width="194" height="45" as="geometry">
            <mxRectangle width="194" height="45" as="alternateBounds" />
          </mxGeometry>
        </mxCell>
        <mxCell id="EEROR-bLSsk1TJV5t8Pp-237" value="FK" style="shape=partialRectangle;connectable=0;fillColor=none;top=0;left=0;bottom=0;right=0;align=left;spacingLeft=2;overflow=hidden;fontSize=11;" vertex="1" parent="EEROR-bLSsk1TJV5t8Pp-234">
          <mxGeometry x="266" width="22" height="45" as="geometry">
            <mxRectangle width="22" height="45" as="alternateBounds" />
          </mxGeometry>
        </mxCell>
        <mxCell id="EEROR-bLSsk1TJV5t8Pp-238" style="shape=tableRow;horizontal=0;startSize=0;swimlaneHead=0;swimlaneBody=0;fillColor=none;collapsible=0;dropTarget=0;points=[[0,0.5],[1,0.5]];portConstraint=eastwest;top=0;left=0;right=0;bottom=0;" vertex="1" parent="EEROR-bLSsk1TJV5t8Pp-225">
          <mxGeometry y="160" width="288" height="45" as="geometry" />
        </mxCell>
        <mxCell id="EEROR-bLSsk1TJV5t8Pp-239" value="VARCHAR2(10)" style="shape=partialRectangle;connectable=0;fillColor=none;top=0;left=0;bottom=0;right=0;align=left;spacingLeft=2;overflow=hidden;fontSize=11;" vertex="1" parent="EEROR-bLSsk1TJV5t8Pp-238">
          <mxGeometry width="72" height="45" as="geometry">
            <mxRectangle width="72" height="45" as="alternateBounds" />
          </mxGeometry>
        </mxCell>
        <mxCell id="EEROR-bLSsk1TJV5t8Pp-240" value="building_id" style="shape=partialRectangle;connectable=0;fillColor=none;top=0;left=0;bottom=0;right=0;align=left;spacingLeft=2;overflow=hidden;fontSize=11;" vertex="1" parent="EEROR-bLSsk1TJV5t8Pp-238">
          <mxGeometry x="72" width="194" height="45" as="geometry">
            <mxRectangle width="194" height="45" as="alternateBounds" />
          </mxGeometry>
        </mxCell>
        <mxCell id="EEROR-bLSsk1TJV5t8Pp-241" value="FK" style="shape=partialRectangle;connectable=0;fillColor=none;top=0;left=0;bottom=0;right=0;align=left;spacingLeft=2;overflow=hidden;fontSize=11;" vertex="1" parent="EEROR-bLSsk1TJV5t8Pp-238">
          <mxGeometry x="266" width="22" height="45" as="geometry">
            <mxRectangle width="22" height="45" as="alternateBounds" />
          </mxGeometry>
        </mxCell>
        <mxCell id="EEROR-bLSsk1TJV5t8Pp-242" style="shape=tableRow;horizontal=0;startSize=0;swimlaneHead=0;swimlaneBody=0;fillColor=none;collapsible=0;dropTarget=0;points=[[0,0.5],[1,0.5]];portConstraint=eastwest;top=0;left=0;right=0;bottom=0;" vertex="1" parent="EEROR-bLSsk1TJV5t8Pp-225">
          <mxGeometry y="205" width="288" height="45" as="geometry" />
        </mxCell>
        <mxCell id="EEROR-bLSsk1TJV5t8Pp-243" value="TIMESTAMP" style="shape=partialRectangle;connectable=0;fillColor=none;top=0;left=0;bottom=0;right=0;align=left;spacingLeft=2;overflow=hidden;fontSize=11;" vertex="1" parent="EEROR-bLSsk1TJV5t8Pp-242">
          <mxGeometry width="72" height="45" as="geometry">
            <mxRectangle width="72" height="45" as="alternateBounds" />
          </mxGeometry>
        </mxCell>
        <mxCell id="EEROR-bLSsk1TJV5t8Pp-244" value="enter_time" style="shape=partialRectangle;connectable=0;fillColor=none;top=0;left=0;bottom=0;right=0;align=left;spacingLeft=2;overflow=hidden;fontSize=11;" vertex="1" parent="EEROR-bLSsk1TJV5t8Pp-242">
          <mxGeometry x="72" width="194" height="45" as="geometry">
            <mxRectangle width="194" height="45" as="alternateBounds" />
          </mxGeometry>
        </mxCell>
        <mxCell id="EEROR-bLSsk1TJV5t8Pp-245" value="" style="shape=partialRectangle;connectable=0;fillColor=none;top=0;left=0;bottom=0;right=0;align=left;spacingLeft=2;overflow=hidden;fontSize=11;" vertex="1" parent="EEROR-bLSsk1TJV5t8Pp-242">
          <mxGeometry x="266" width="22" height="45" as="geometry">
            <mxRectangle width="22" height="45" as="alternateBounds" />
          </mxGeometry>
        </mxCell>
        <mxCell id="EEROR-bLSsk1TJV5t8Pp-246" style="shape=tableRow;horizontal=0;startSize=0;swimlaneHead=0;swimlaneBody=0;fillColor=none;collapsible=0;dropTarget=0;points=[[0,0.5],[1,0.5]];portConstraint=eastwest;top=0;left=0;right=0;bottom=0;" vertex="1" parent="EEROR-bLSsk1TJV5t8Pp-225">
          <mxGeometry y="250" width="288" height="45" as="geometry" />
        </mxCell>
        <mxCell id="EEROR-bLSsk1TJV5t8Pp-247" value="TIMESTAMP" style="shape=partialRectangle;connectable=0;fillColor=none;top=0;left=0;bottom=0;right=0;align=left;spacingLeft=2;overflow=hidden;fontSize=11;" vertex="1" parent="EEROR-bLSsk1TJV5t8Pp-246">
          <mxGeometry width="72" height="45" as="geometry">
            <mxRectangle width="72" height="45" as="alternateBounds" />
          </mxGeometry>
        </mxCell>
        <mxCell id="EEROR-bLSsk1TJV5t8Pp-248" value="leave_time" style="shape=partialRectangle;connectable=0;fillColor=none;top=0;left=0;bottom=0;right=0;align=left;spacingLeft=2;overflow=hidden;fontSize=11;" vertex="1" parent="EEROR-bLSsk1TJV5t8Pp-246">
          <mxGeometry x="72" width="194" height="45" as="geometry">
            <mxRectangle width="194" height="45" as="alternateBounds" />
          </mxGeometry>
        </mxCell>
        <mxCell id="EEROR-bLSsk1TJV5t8Pp-249" value="" style="shape=partialRectangle;connectable=0;fillColor=none;top=0;left=0;bottom=0;right=0;align=left;spacingLeft=2;overflow=hidden;fontSize=11;" vertex="1" parent="EEROR-bLSsk1TJV5t8Pp-246">
          <mxGeometry x="266" width="22" height="45" as="geometry">
            <mxRectangle width="22" height="45" as="alternateBounds" />
          </mxGeometry>
        </mxCell>
        <mxCell id="EEROR-bLSsk1TJV5t8Pp-250" style="shape=tableRow;horizontal=0;startSize=0;swimlaneHead=0;swimlaneBody=0;fillColor=none;collapsible=0;dropTarget=0;points=[[0,0.5],[1,0.5]];portConstraint=eastwest;top=0;left=0;right=0;bottom=0;" vertex="1" parent="EEROR-bLSsk1TJV5t8Pp-225">
          <mxGeometry y="295" width="288" height="45" as="geometry" />
        </mxCell>
        <mxCell id="EEROR-bLSsk1TJV5t8Pp-251" value="VARCHAR2(20)" style="shape=partialRectangle;connectable=0;fillColor=none;top=0;left=0;bottom=0;right=0;align=left;spacingLeft=2;overflow=hidden;fontSize=11;" vertex="1" parent="EEROR-bLSsk1TJV5t8Pp-250">
          <mxGeometry width="72" height="45" as="geometry">
            <mxRectangle width="72" height="45" as="alternateBounds" />
          </mxGeometry>
        </mxCell>
        <mxCell id="EEROR-bLSsk1TJV5t8Pp-252" value="staff_id" style="shape=partialRectangle;connectable=0;fillColor=none;top=0;left=0;bottom=0;right=0;align=left;spacingLeft=2;overflow=hidden;fontSize=11;" vertex="1" parent="EEROR-bLSsk1TJV5t8Pp-250">
          <mxGeometry x="72" width="194" height="45" as="geometry">
            <mxRectangle width="194" height="45" as="alternateBounds" />
          </mxGeometry>
        </mxCell>
        <mxCell id="EEROR-bLSsk1TJV5t8Pp-253" value="FK" style="shape=partialRectangle;connectable=0;fillColor=none;top=0;left=0;bottom=0;right=0;align=left;spacingLeft=2;overflow=hidden;fontSize=11;" vertex="1" parent="EEROR-bLSsk1TJV5t8Pp-250">
          <mxGeometry x="266" width="22" height="45" as="geometry">
            <mxRectangle width="22" height="45" as="alternateBounds" />
          </mxGeometry>
        </mxCell>
        <mxCell id="EEROR-bLSsk1TJV5t8Pp-254" value="students" style="shape=table;startSize=25;container=1;collapsible=0;childLayout=tableLayout;fixedRows=1;rowLines=1;fontStyle=1;align=center;resizeLast=1;" vertex="1" parent="1">
          <mxGeometry x="444" y="695" width="277" height="257" as="geometry" />
        </mxCell>
        <mxCell id="EEROR-bLSsk1TJV5t8Pp-255" style="shape=tableRow;horizontal=0;startSize=0;swimlaneHead=0;swimlaneBody=0;fillColor=none;collapsible=0;dropTarget=0;points=[[0,0.5],[1,0.5]];portConstraint=eastwest;top=0;left=0;right=0;bottom=0;" vertex="1" parent="EEROR-bLSsk1TJV5t8Pp-254">
          <mxGeometry y="25" width="277" height="46" as="geometry" />
        </mxCell>
        <mxCell id="EEROR-bLSsk1TJV5t8Pp-256" value="VARCHAR2(20)" style="shape=partialRectangle;connectable=0;fillColor=none;top=0;left=0;bottom=0;right=0;align=left;spacingLeft=2;overflow=hidden;fontSize=11;" vertex="1" parent="EEROR-bLSsk1TJV5t8Pp-255">
          <mxGeometry width="72" height="46" as="geometry">
            <mxRectangle width="72" height="46" as="alternateBounds" />
          </mxGeometry>
        </mxCell>
        <mxCell id="EEROR-bLSsk1TJV5t8Pp-257" value="student_id" style="shape=partialRectangle;connectable=0;fillColor=none;top=0;left=0;bottom=0;right=0;align=left;spacingLeft=2;overflow=hidden;fontSize=11;" vertex="1" parent="EEROR-bLSsk1TJV5t8Pp-255">
          <mxGeometry x="72" width="183" height="46" as="geometry">
            <mxRectangle width="183" height="46" as="alternateBounds" />
          </mxGeometry>
        </mxCell>
        <mxCell id="EEROR-bLSsk1TJV5t8Pp-258" value="PK" style="shape=partialRectangle;connectable=0;fillColor=none;top=0;left=0;bottom=0;right=0;align=left;spacingLeft=2;overflow=hidden;fontSize=11;" vertex="1" parent="EEROR-bLSsk1TJV5t8Pp-255">
          <mxGeometry x="255" width="22" height="46" as="geometry">
            <mxRectangle width="22" height="46" as="alternateBounds" />
          </mxGeometry>
        </mxCell>
        <mxCell id="EEROR-bLSsk1TJV5t8Pp-259" style="shape=tableRow;horizontal=0;startSize=0;swimlaneHead=0;swimlaneBody=0;fillColor=none;collapsible=0;dropTarget=0;points=[[0,0.5],[1,0.5]];portConstraint=eastwest;top=0;left=0;right=0;bottom=0;" vertex="1" parent="EEROR-bLSsk1TJV5t8Pp-254">
          <mxGeometry y="71" width="277" height="46" as="geometry" />
        </mxCell>
        <mxCell id="EEROR-bLSsk1TJV5t8Pp-260" value="VARCHAR2(50)" style="shape=partialRectangle;connectable=0;fillColor=none;top=0;left=0;bottom=0;right=0;align=left;spacingLeft=2;overflow=hidden;fontSize=11;" vertex="1" parent="EEROR-bLSsk1TJV5t8Pp-259">
          <mxGeometry width="72" height="46" as="geometry">
            <mxRectangle width="72" height="46" as="alternateBounds" />
          </mxGeometry>
        </mxCell>
        <mxCell id="EEROR-bLSsk1TJV5t8Pp-261" value="name" style="shape=partialRectangle;connectable=0;fillColor=none;top=0;left=0;bottom=0;right=0;align=left;spacingLeft=2;overflow=hidden;fontSize=11;" vertex="1" parent="EEROR-bLSsk1TJV5t8Pp-259">
          <mxGeometry x="72" width="183" height="46" as="geometry">
            <mxRectangle width="183" height="46" as="alternateBounds" />
          </mxGeometry>
        </mxCell>
        <mxCell id="EEROR-bLSsk1TJV5t8Pp-262" value="" style="shape=partialRectangle;connectable=0;fillColor=none;top=0;left=0;bottom=0;right=0;align=left;spacingLeft=2;overflow=hidden;fontSize=11;" vertex="1" parent="EEROR-bLSsk1TJV5t8Pp-259">
          <mxGeometry x="255" width="22" height="46" as="geometry">
            <mxRectangle width="22" height="46" as="alternateBounds" />
          </mxGeometry>
        </mxCell>
        <mxCell id="EEROR-bLSsk1TJV5t8Pp-263" style="shape=tableRow;horizontal=0;startSize=0;swimlaneHead=0;swimlaneBody=0;fillColor=none;collapsible=0;dropTarget=0;points=[[0,0.5],[1,0.5]];portConstraint=eastwest;top=0;left=0;right=0;bottom=0;" vertex="1" parent="EEROR-bLSsk1TJV5t8Pp-254">
          <mxGeometry y="117" width="277" height="46" as="geometry" />
        </mxCell>
        <mxCell id="EEROR-bLSsk1TJV5t8Pp-264" value="CHAR(1)" style="shape=partialRectangle;connectable=0;fillColor=none;top=0;left=0;bottom=0;right=0;align=left;spacingLeft=2;overflow=hidden;fontSize=11;" vertex="1" parent="EEROR-bLSsk1TJV5t8Pp-263">
          <mxGeometry width="72" height="46" as="geometry">
            <mxRectangle width="72" height="46" as="alternateBounds" />
          </mxGeometry>
        </mxCell>
        <mxCell id="EEROR-bLSsk1TJV5t8Pp-265" value="gender" style="shape=partialRectangle;connectable=0;fillColor=none;top=0;left=0;bottom=0;right=0;align=left;spacingLeft=2;overflow=hidden;fontSize=11;" vertex="1" parent="EEROR-bLSsk1TJV5t8Pp-263">
          <mxGeometry x="72" width="183" height="46" as="geometry">
            <mxRectangle width="183" height="46" as="alternateBounds" />
          </mxGeometry>
        </mxCell>
        <mxCell id="EEROR-bLSsk1TJV5t8Pp-266" value="" style="shape=partialRectangle;connectable=0;fillColor=none;top=0;left=0;bottom=0;right=0;align=left;spacingLeft=2;overflow=hidden;fontSize=11;" vertex="1" parent="EEROR-bLSsk1TJV5t8Pp-263">
          <mxGeometry x="255" width="22" height="46" as="geometry">
            <mxRectangle width="22" height="46" as="alternateBounds" />
          </mxGeometry>
        </mxCell>
        <mxCell id="EEROR-bLSsk1TJV5t8Pp-267" style="shape=tableRow;horizontal=0;startSize=0;swimlaneHead=0;swimlaneBody=0;fillColor=none;collapsible=0;dropTarget=0;points=[[0,0.5],[1,0.5]];portConstraint=eastwest;top=0;left=0;right=0;bottom=0;" vertex="1" parent="EEROR-bLSsk1TJV5t8Pp-254">
          <mxGeometry y="163" width="277" height="46" as="geometry" />
        </mxCell>
        <mxCell id="EEROR-bLSsk1TJV5t8Pp-268" value="VARCHAR2(50)" style="shape=partialRectangle;connectable=0;fillColor=none;top=0;left=0;bottom=0;right=0;align=left;spacingLeft=2;overflow=hidden;fontSize=11;" vertex="1" parent="EEROR-bLSsk1TJV5t8Pp-267">
          <mxGeometry width="72" height="46" as="geometry">
            <mxRectangle width="72" height="46" as="alternateBounds" />
          </mxGeometry>
        </mxCell>
        <mxCell id="EEROR-bLSsk1TJV5t8Pp-269" value="class_name" style="shape=partialRectangle;connectable=0;fillColor=none;top=0;left=0;bottom=0;right=0;align=left;spacingLeft=2;overflow=hidden;fontSize=11;" vertex="1" parent="EEROR-bLSsk1TJV5t8Pp-267">
          <mxGeometry x="72" width="183" height="46" as="geometry">
            <mxRectangle width="183" height="46" as="alternateBounds" />
          </mxGeometry>
        </mxCell>
        <mxCell id="EEROR-bLSsk1TJV5t8Pp-270" value="" style="shape=partialRectangle;connectable=0;fillColor=none;top=0;left=0;bottom=0;right=0;align=left;spacingLeft=2;overflow=hidden;fontSize=11;" vertex="1" parent="EEROR-bLSsk1TJV5t8Pp-267">
          <mxGeometry x="255" width="22" height="46" as="geometry">
            <mxRectangle width="22" height="46" as="alternateBounds" />
          </mxGeometry>
        </mxCell>
        <mxCell id="EEROR-bLSsk1TJV5t8Pp-271" style="shape=tableRow;horizontal=0;startSize=0;swimlaneHead=0;swimlaneBody=0;fillColor=none;collapsible=0;dropTarget=0;points=[[0,0.5],[1,0.5]];portConstraint=eastwest;top=0;left=0;right=0;bottom=0;" vertex="1" parent="EEROR-bLSsk1TJV5t8Pp-254">
          <mxGeometry y="209" width="277" height="46" as="geometry" />
        </mxCell>
        <mxCell id="EEROR-bLSsk1TJV5t8Pp-272" value="VARCHAR2(15)" style="shape=partialRectangle;connectable=0;fillColor=none;top=0;left=0;bottom=0;right=0;align=left;spacingLeft=2;overflow=hidden;fontSize=11;" vertex="1" parent="EEROR-bLSsk1TJV5t8Pp-271">
          <mxGeometry width="72" height="46" as="geometry">
            <mxRectangle width="72" height="46" as="alternateBounds" />
          </mxGeometry>
        </mxCell>
        <mxCell id="EEROR-bLSsk1TJV5t8Pp-273" value="room_id" style="shape=partialRectangle;connectable=0;fillColor=none;top=0;left=0;bottom=0;right=0;align=left;spacingLeft=2;overflow=hidden;fontSize=11;" vertex="1" parent="EEROR-bLSsk1TJV5t8Pp-271">
          <mxGeometry x="72" width="183" height="46" as="geometry">
            <mxRectangle width="183" height="46" as="alternateBounds" />
          </mxGeometry>
        </mxCell>
        <mxCell id="EEROR-bLSsk1TJV5t8Pp-274" value="FK" style="shape=partialRectangle;connectable=0;fillColor=none;top=0;left=0;bottom=0;right=0;align=left;spacingLeft=2;overflow=hidden;fontSize=11;" vertex="1" parent="EEROR-bLSsk1TJV5t8Pp-271">
          <mxGeometry x="255" width="22" height="46" as="geometry">
            <mxRectangle width="22" height="46" as="alternateBounds" />
          </mxGeometry>
        </mxCell>
        <mxCell id="EEROR-bLSsk1TJV5t8Pp-275" value="item_registrations" style="shape=table;startSize=25;container=1;collapsible=0;childLayout=tableLayout;fixedRows=1;rowLines=1;fontStyle=1;align=center;resizeLast=1;" vertex="1" parent="1">
          <mxGeometry x="468" y="1053" width="284" height="342" as="geometry" />
        </mxCell>
        <mxCell id="EEROR-bLSsk1TJV5t8Pp-276" style="shape=tableRow;horizontal=0;startSize=0;swimlaneHead=0;swimlaneBody=0;fillColor=none;collapsible=0;dropTarget=0;points=[[0,0.5],[1,0.5]];portConstraint=eastwest;top=0;left=0;right=0;bottom=0;" vertex="1" parent="EEROR-bLSsk1TJV5t8Pp-275">
          <mxGeometry y="25" width="284" height="45" as="geometry" />
        </mxCell>
        <mxCell id="EEROR-bLSsk1TJV5t8Pp-277" value="NUMBER" style="shape=partialRectangle;connectable=0;fillColor=none;top=0;left=0;bottom=0;right=0;align=left;spacingLeft=2;overflow=hidden;fontSize=11;" vertex="1" parent="EEROR-bLSsk1TJV5t8Pp-276">
          <mxGeometry width="78" height="45" as="geometry">
            <mxRectangle width="78" height="45" as="alternateBounds" />
          </mxGeometry>
        </mxCell>
        <mxCell id="EEROR-bLSsk1TJV5t8Pp-278" value="reg_id" style="shape=partialRectangle;connectable=0;fillColor=none;top=0;left=0;bottom=0;right=0;align=left;spacingLeft=2;overflow=hidden;fontSize=11;" vertex="1" parent="EEROR-bLSsk1TJV5t8Pp-276">
          <mxGeometry x="78" width="184" height="45" as="geometry">
            <mxRectangle width="184" height="45" as="alternateBounds" />
          </mxGeometry>
        </mxCell>
        <mxCell id="EEROR-bLSsk1TJV5t8Pp-279" value="PK" style="shape=partialRectangle;connectable=0;fillColor=none;top=0;left=0;bottom=0;right=0;align=left;spacingLeft=2;overflow=hidden;fontSize=11;" vertex="1" parent="EEROR-bLSsk1TJV5t8Pp-276">
          <mxGeometry x="262" width="22" height="45" as="geometry">
            <mxRectangle width="22" height="45" as="alternateBounds" />
          </mxGeometry>
        </mxCell>
        <mxCell id="EEROR-bLSsk1TJV5t8Pp-280" style="shape=tableRow;horizontal=0;startSize=0;swimlaneHead=0;swimlaneBody=0;fillColor=none;collapsible=0;dropTarget=0;points=[[0,0.5],[1,0.5]];portConstraint=eastwest;top=0;left=0;right=0;bottom=0;" vertex="1" parent="EEROR-bLSsk1TJV5t8Pp-275">
          <mxGeometry y="70" width="284" height="45" as="geometry" />
        </mxCell>
        <mxCell id="EEROR-bLSsk1TJV5t8Pp-281" value="VARCHAR2(20)" style="shape=partialRectangle;connectable=0;fillColor=none;top=0;left=0;bottom=0;right=0;align=left;spacingLeft=2;overflow=hidden;fontSize=11;" vertex="1" parent="EEROR-bLSsk1TJV5t8Pp-280">
          <mxGeometry width="78" height="45" as="geometry">
            <mxRectangle width="78" height="45" as="alternateBounds" />
          </mxGeometry>
        </mxCell>
        <mxCell id="EEROR-bLSsk1TJV5t8Pp-282" value="student_id" style="shape=partialRectangle;connectable=0;fillColor=none;top=0;left=0;bottom=0;right=0;align=left;spacingLeft=2;overflow=hidden;fontSize=11;" vertex="1" parent="EEROR-bLSsk1TJV5t8Pp-280">
          <mxGeometry x="78" width="184" height="45" as="geometry">
            <mxRectangle width="184" height="45" as="alternateBounds" />
          </mxGeometry>
        </mxCell>
        <mxCell id="EEROR-bLSsk1TJV5t8Pp-283" value="FK" style="shape=partialRectangle;connectable=0;fillColor=none;top=0;left=0;bottom=0;right=0;align=left;spacingLeft=2;overflow=hidden;fontSize=11;" vertex="1" parent="EEROR-bLSsk1TJV5t8Pp-280">
          <mxGeometry x="262" width="22" height="45" as="geometry">
            <mxRectangle width="22" height="45" as="alternateBounds" />
          </mxGeometry>
        </mxCell>
        <mxCell id="EEROR-bLSsk1TJV5t8Pp-284" style="shape=tableRow;horizontal=0;startSize=0;swimlaneHead=0;swimlaneBody=0;fillColor=none;collapsible=0;dropTarget=0;points=[[0,0.5],[1,0.5]];portConstraint=eastwest;top=0;left=0;right=0;bottom=0;" vertex="1" parent="EEROR-bLSsk1TJV5t8Pp-275">
          <mxGeometry y="115" width="284" height="45" as="geometry" />
        </mxCell>
        <mxCell id="EEROR-bLSsk1TJV5t8Pp-285" value="VARCHAR2(100)" style="shape=partialRectangle;connectable=0;fillColor=none;top=0;left=0;bottom=0;right=0;align=left;spacingLeft=2;overflow=hidden;fontSize=11;" vertex="1" parent="EEROR-bLSsk1TJV5t8Pp-284">
          <mxGeometry width="78" height="45" as="geometry">
            <mxRectangle width="78" height="45" as="alternateBounds" />
          </mxGeometry>
        </mxCell>
        <mxCell id="EEROR-bLSsk1TJV5t8Pp-286" value="item_name" style="shape=partialRectangle;connectable=0;fillColor=none;top=0;left=0;bottom=0;right=0;align=left;spacingLeft=2;overflow=hidden;fontSize=11;" vertex="1" parent="EEROR-bLSsk1TJV5t8Pp-284">
          <mxGeometry x="78" width="184" height="45" as="geometry">
            <mxRectangle width="184" height="45" as="alternateBounds" />
          </mxGeometry>
        </mxCell>
        <mxCell id="EEROR-bLSsk1TJV5t8Pp-287" value="" style="shape=partialRectangle;connectable=0;fillColor=none;top=0;left=0;bottom=0;right=0;align=left;spacingLeft=2;overflow=hidden;fontSize=11;" vertex="1" parent="EEROR-bLSsk1TJV5t8Pp-284">
          <mxGeometry x="262" width="22" height="45" as="geometry">
            <mxRectangle width="22" height="45" as="alternateBounds" />
          </mxGeometry>
        </mxCell>
        <mxCell id="EEROR-bLSsk1TJV5t8Pp-288" style="shape=tableRow;horizontal=0;startSize=0;swimlaneHead=0;swimlaneBody=0;fillColor=none;collapsible=0;dropTarget=0;points=[[0,0.5],[1,0.5]];portConstraint=eastwest;top=0;left=0;right=0;bottom=0;" vertex="1" parent="EEROR-bLSsk1TJV5t8Pp-275">
          <mxGeometry y="160" width="284" height="45" as="geometry" />
        </mxCell>
        <mxCell id="EEROR-bLSsk1TJV5t8Pp-289" value="NUMBER" style="shape=partialRectangle;connectable=0;fillColor=none;top=0;left=0;bottom=0;right=0;align=left;spacingLeft=2;overflow=hidden;fontSize=11;" vertex="1" parent="EEROR-bLSsk1TJV5t8Pp-288">
          <mxGeometry width="78" height="45" as="geometry">
            <mxRectangle width="78" height="45" as="alternateBounds" />
          </mxGeometry>
        </mxCell>
        <mxCell id="EEROR-bLSsk1TJV5t8Pp-290" value="quantity" style="shape=partialRectangle;connectable=0;fillColor=none;top=0;left=0;bottom=0;right=0;align=left;spacingLeft=2;overflow=hidden;fontSize=11;" vertex="1" parent="EEROR-bLSsk1TJV5t8Pp-288">
          <mxGeometry x="78" width="184" height="45" as="geometry">
            <mxRectangle width="184" height="45" as="alternateBounds" />
          </mxGeometry>
        </mxCell>
        <mxCell id="EEROR-bLSsk1TJV5t8Pp-291" value="" style="shape=partialRectangle;connectable=0;fillColor=none;top=0;left=0;bottom=0;right=0;align=left;spacingLeft=2;overflow=hidden;fontSize=11;" vertex="1" parent="EEROR-bLSsk1TJV5t8Pp-288">
          <mxGeometry x="262" width="22" height="45" as="geometry">
            <mxRectangle width="22" height="45" as="alternateBounds" />
          </mxGeometry>
        </mxCell>
        <mxCell id="EEROR-bLSsk1TJV5t8Pp-292" style="shape=tableRow;horizontal=0;startSize=0;swimlaneHead=0;swimlaneBody=0;fillColor=none;collapsible=0;dropTarget=0;points=[[0,0.5],[1,0.5]];portConstraint=eastwest;top=0;left=0;right=0;bottom=0;" vertex="1" parent="EEROR-bLSsk1TJV5t8Pp-275">
          <mxGeometry y="205" width="284" height="45" as="geometry" />
        </mxCell>
        <mxCell id="EEROR-bLSsk1TJV5t8Pp-293" value="VARCHAR2(10)" style="shape=partialRectangle;connectable=0;fillColor=none;top=0;left=0;bottom=0;right=0;align=left;spacingLeft=2;overflow=hidden;fontSize=11;" vertex="1" parent="EEROR-bLSsk1TJV5t8Pp-292">
          <mxGeometry width="78" height="45" as="geometry">
            <mxRectangle width="78" height="45" as="alternateBounds" />
          </mxGeometry>
        </mxCell>
        <mxCell id="EEROR-bLSsk1TJV5t8Pp-294" value="direction" style="shape=partialRectangle;connectable=0;fillColor=none;top=0;left=0;bottom=0;right=0;align=left;spacingLeft=2;overflow=hidden;fontSize=11;" vertex="1" parent="EEROR-bLSsk1TJV5t8Pp-292">
          <mxGeometry x="78" width="184" height="45" as="geometry">
            <mxRectangle width="184" height="45" as="alternateBounds" />
          </mxGeometry>
        </mxCell>
        <mxCell id="EEROR-bLSsk1TJV5t8Pp-295" value="" style="shape=partialRectangle;connectable=0;fillColor=none;top=0;left=0;bottom=0;right=0;align=left;spacingLeft=2;overflow=hidden;fontSize=11;" vertex="1" parent="EEROR-bLSsk1TJV5t8Pp-292">
          <mxGeometry x="262" width="22" height="45" as="geometry">
            <mxRectangle width="22" height="45" as="alternateBounds" />
          </mxGeometry>
        </mxCell>
        <mxCell id="EEROR-bLSsk1TJV5t8Pp-296" style="shape=tableRow;horizontal=0;startSize=0;swimlaneHead=0;swimlaneBody=0;fillColor=none;collapsible=0;dropTarget=0;points=[[0,0.5],[1,0.5]];portConstraint=eastwest;top=0;left=0;right=0;bottom=0;" vertex="1" parent="EEROR-bLSsk1TJV5t8Pp-275">
          <mxGeometry y="250" width="284" height="45" as="geometry" />
        </mxCell>
        <mxCell id="EEROR-bLSsk1TJV5t8Pp-297" value="TIMESTAMP" style="shape=partialRectangle;connectable=0;fillColor=none;top=0;left=0;bottom=0;right=0;align=left;spacingLeft=2;overflow=hidden;fontSize=11;" vertex="1" parent="EEROR-bLSsk1TJV5t8Pp-296">
          <mxGeometry width="78" height="45" as="geometry">
            <mxRectangle width="78" height="45" as="alternateBounds" />
          </mxGeometry>
        </mxCell>
        <mxCell id="EEROR-bLSsk1TJV5t8Pp-298" value="reg_time" style="shape=partialRectangle;connectable=0;fillColor=none;top=0;left=0;bottom=0;right=0;align=left;spacingLeft=2;overflow=hidden;fontSize=11;" vertex="1" parent="EEROR-bLSsk1TJV5t8Pp-296">
          <mxGeometry x="78" width="184" height="45" as="geometry">
            <mxRectangle width="184" height="45" as="alternateBounds" />
          </mxGeometry>
        </mxCell>
        <mxCell id="EEROR-bLSsk1TJV5t8Pp-299" value="" style="shape=partialRectangle;connectable=0;fillColor=none;top=0;left=0;bottom=0;right=0;align=left;spacingLeft=2;overflow=hidden;fontSize=11;" vertex="1" parent="EEROR-bLSsk1TJV5t8Pp-296">
          <mxGeometry x="262" width="22" height="45" as="geometry">
            <mxRectangle width="22" height="45" as="alternateBounds" />
          </mxGeometry>
        </mxCell>
        <mxCell id="EEROR-bLSsk1TJV5t8Pp-300" style="shape=tableRow;horizontal=0;startSize=0;swimlaneHead=0;swimlaneBody=0;fillColor=none;collapsible=0;dropTarget=0;points=[[0,0.5],[1,0.5]];portConstraint=eastwest;top=0;left=0;right=0;bottom=0;" vertex="1" parent="EEROR-bLSsk1TJV5t8Pp-275">
          <mxGeometry y="295" width="284" height="45" as="geometry" />
        </mxCell>
        <mxCell id="EEROR-bLSsk1TJV5t8Pp-301" value="VARCHAR2(20)" style="shape=partialRectangle;connectable=0;fillColor=none;top=0;left=0;bottom=0;right=0;align=left;spacingLeft=2;overflow=hidden;fontSize=11;" vertex="1" parent="EEROR-bLSsk1TJV5t8Pp-300">
          <mxGeometry width="78" height="45" as="geometry">
            <mxRectangle width="78" height="45" as="alternateBounds" />
          </mxGeometry>
        </mxCell>
        <mxCell id="EEROR-bLSsk1TJV5t8Pp-302" value="staff_id" style="shape=partialRectangle;connectable=0;fillColor=none;top=0;left=0;bottom=0;right=0;align=left;spacingLeft=2;overflow=hidden;fontSize=11;" vertex="1" parent="EEROR-bLSsk1TJV5t8Pp-300">
          <mxGeometry x="78" width="184" height="45" as="geometry">
            <mxRectangle width="184" height="45" as="alternateBounds" />
          </mxGeometry>
        </mxCell>
        <mxCell id="EEROR-bLSsk1TJV5t8Pp-303" value="FK" style="shape=partialRectangle;connectable=0;fillColor=none;top=0;left=0;bottom=0;right=0;align=left;spacingLeft=2;overflow=hidden;fontSize=11;" vertex="1" parent="EEROR-bLSsk1TJV5t8Pp-300">
          <mxGeometry x="262" width="22" height="45" as="geometry">
            <mxRectangle width="22" height="45" as="alternateBounds" />
          </mxGeometry>
        </mxCell>
        <mxCell id="EEROR-bLSsk1TJV5t8Pp-304" value="操作" style="curved=1;startArrow=ERmandOne;startSize=10;;endArrow=ERzeroToMany;endSize=10;;exitX=0.5;exitY=1;entryX=0.5;entryY=0;rounded=0;" edge="1" parent="1" source="EEROR-bLSsk1TJV5t8Pp-132" target="EEROR-bLSsk1TJV5t8Pp-149">
          <mxGeometry relative="1" as="geometry">
            <Array as="points" />
          </mxGeometry>
        </mxCell>
        <mxCell id="EEROR-bLSsk1TJV5t8Pp-305" value="包含" style="curved=1;startArrow=ERmandOne;startSize=10;;endArrow=ERzeroToMany;endSize=10;;exitX=0;exitY=0.73;entryX=0.5;entryY=0;rounded=0;" edge="1" parent="1" source="EEROR-bLSsk1TJV5t8Pp-166" target="EEROR-bLSsk1TJV5t8Pp-183">
          <mxGeometry relative="1" as="geometry">
            <Array as="points">
              <mxPoint x="582" y="285" />
            </Array>
          </mxGeometry>
        </mxCell>
        <mxCell id="EEROR-bLSsk1TJV5t8Pp-306" value="管理" style="curved=1;startArrow=ERmandOne;startSize=10;;endArrow=ERzeroToMany;endSize=10;;exitX=0.5;exitY=1;entryX=0.5;entryY=0;rounded=0;" edge="1" parent="1" source="EEROR-bLSsk1TJV5t8Pp-166" target="EEROR-bLSsk1TJV5t8Pp-204">
          <mxGeometry relative="1" as="geometry">
            <Array as="points" />
          </mxGeometry>
        </mxCell>
        <mxCell id="EEROR-bLSsk1TJV5t8Pp-307" value="接待" style="curved=1;startArrow=ERmandOne;startSize=10;;endArrow=ERzeroToMany;endSize=10;;exitX=0.99;exitY=1;entryX=0.93;entryY=0;rounded=0;" edge="1" parent="1" source="EEROR-bLSsk1TJV5t8Pp-166" target="EEROR-bLSsk1TJV5t8Pp-225">
          <mxGeometry relative="1" as="geometry">
            <Array as="points">
              <mxPoint x="1280" y="285" />
              <mxPoint x="1280" y="1002" />
            </Array>
          </mxGeometry>
        </mxCell>
        <mxCell id="EEROR-bLSsk1TJV5t8Pp-308" value="入住" style="curved=1;startArrow=ERmandOne;startSize=10;;endArrow=ERzeroToMany;endSize=10;;exitX=0.5;exitY=1;entryX=0.5;entryY=0;rounded=0;" edge="1" parent="1" source="EEROR-bLSsk1TJV5t8Pp-183" target="EEROR-bLSsk1TJV5t8Pp-254">
          <mxGeometry relative="1" as="geometry">
            <Array as="points" />
          </mxGeometry>
        </mxCell>
        <mxCell id="EEROR-bLSsk1TJV5t8Pp-309" value="登记" style="curved=1;startArrow=ERmandOne;startSize=10;;endArrow=ERzeroToMany;endSize=10;;exitX=0;exitY=0.95;entryX=1;entryY=0.12;rounded=0;" edge="1" parent="1" source="EEROR-bLSsk1TJV5t8Pp-204" target="EEROR-bLSsk1TJV5t8Pp-275">
          <mxGeometry relative="1" as="geometry">
            <Array as="points">
              <mxPoint x="851" y="1002" />
            </Array>
          </mxGeometry>
        </mxCell>
        <mxCell id="EEROR-bLSsk1TJV5t8Pp-310" value="登记" style="curved=1;startArrow=ERmandOne;startSize=10;;endArrow=ERzeroToMany;endSize=10;;exitX=0.65;exitY=1;entryX=0.5;entryY=0;rounded=0;" edge="1" parent="1" source="EEROR-bLSsk1TJV5t8Pp-204" target="EEROR-bLSsk1TJV5t8Pp-225">
          <mxGeometry relative="1" as="geometry">
            <Array as="points">
              <mxPoint x="1121" y="1002" />
            </Array>
          </mxGeometry>
        </mxCell>
        <mxCell id="EEROR-bLSsk1TJV5t8Pp-311" value="携带" style="curved=1;startArrow=ERmandOne;startSize=10;;endArrow=ERzeroToMany;endSize=10;;exitX=0.5;exitY=1;entryX=0.42;entryY=0;rounded=0;" edge="1" parent="1" source="EEROR-bLSsk1TJV5t8Pp-254" target="EEROR-bLSsk1TJV5t8Pp-275">
          <mxGeometry relative="1" as="geometry">
            <Array as="points">
              <mxPoint x="582" y="1002" />
            </Array>
          </mxGeometry>
        </mxCell>
        <mxCell id="EEROR-bLSsk1TJV5t8Pp-312" value="接待" style="curved=1;startArrow=ERmandOne;startSize=10;;endArrow=ERzeroToMany;endSize=10;;exitX=1;exitY=0.95;entryX=0;entryY=0.21;rounded=0;" edge="1" parent="1" source="EEROR-bLSsk1TJV5t8Pp-254" target="EEROR-bLSsk1TJV5t8Pp-225">
          <mxGeometry relative="1" as="geometry">
            <Array as="points">
              <mxPoint x="795" y="1002" />
            </Array>
          </mxGeometry>
        </mxCell>
      </root>
    </mxGraphModel>
  </diagram>
</mxfile>
